<?xml version="1.0" standalone="no"?>
<!DOCTYPE svg PUBLIC "-//W3C//DTD SVG 20010904//EN"
 "http://www.w3.org/TR/2001/REC-SVG-20010904/DTD/svg10.dtd">
<svg version="1.0" xmlns="http://www.w3.org/2000/svg"
 width="128.000000pt" height="128.000000pt" viewBox="0 0 128.000000 128.000000"
 preserveAspectRatio="xMidYMid meet">
<metadata>
Created by potrace 1.11, written by Peter Selinger 2001-2013
</metadata>
<g transform="translate(0.000000,128.000000) scale(0.100000,-0.100000)"
fill="#000000" stroke="none">
<path d="M510 1264 c-126 -27 -252 -105 -337 -209 -177 -216 -180 -537 -9
-749 30 -36 46 -68 54 -108 23 -101 105 -181 200 -194 51 -7 189 20 222 44 14
10 63 26 110 35 233 45 434 235 475 446 2 13 7 31 10 42 9 26 9 154 0 208 -9
60 -41 143 -81 210 -27 47 -72 98 -149 168 -26 24 -141 82 -195 97 -76 23
-220 28 -300 10z"/>
</g>
</svg>
