<?xml version="1.0" encoding="UTF-8" standalone="no"?>
<!DOCTYPE svg PUBLIC "-//W3C//DTD SVG 1.1//EN" "http://www.w3.org/Graphics/SVG/1.1/DTD/svg11.dtd">
<svg width="100%" height="100%" viewBox="0 0 1024 1024" version="1.1" xmlns="http://www.w3.org/2000/svg" xmlns:xlink="http://www.w3.org/1999/xlink" xml:space="preserve" xmlns:serif="http://www.serif.com/" style="fill-rule:evenodd;clip-rule:evenodd;stroke-linejoin:round;stroke-miterlimit:2;">
    <g id="Thinking_joy" transform="matrix(22.2239,2.55672,-2.55672,22.2239,179.317,-100.582)">
        <g transform="matrix(1.26319,-0.145322,0.145322,1.26319,-3.71319,26.7339)">
            <path d="M0,0C0,9.39 7.611,17 17,17C26.39,17 34,9.39 34,0C34,-9.389 26.39,-17 17,-17C7.611,-17 0,-9.389 0,0" style="fill:rgb(255,203,76);fill-rule:nonzero;"/>
        </g>
        <g transform="matrix(1,0,0,1,28.457,15.2379)">
            <path d="M0,2.559C-0.06,2.424 -1.499,-0.738 -4.457,-0.738C-7.414,-0.738 -8.854,2.424 -8.914,2.559C-9.006,2.766 -8.946,3.008 -8.77,3.15C-8.595,3.292 -8.344,3.297 -8.159,3.164C-8.147,3.155 -6.897,2.262 -4.457,2.262C-2.031,2.262 -0.783,3.143 -0.755,3.163C-0.667,3.229 -0.562,3.262 -0.457,3.262C-0.347,3.262 -0.236,3.226 -0.146,3.153C0.032,3.011 0.093,2.767 0,2.559" style="fill:rgb(102,69,0);fill-rule:nonzero;"/>
        </g>
        <g transform="matrix(1,0,0,1,16.457,15.2379)">
            <path d="M0,2.559C-0.06,2.424 -1.499,-0.738 -4.457,-0.738C-7.414,-0.738 -8.854,2.424 -8.914,2.559C-9.006,2.766 -8.946,3.008 -8.77,3.15C-8.594,3.292 -8.343,3.297 -8.16,3.164C-8.147,3.155 -6.898,2.262 -4.457,2.262C-2.031,2.262 -0.783,3.143 -0.755,3.163C-0.667,3.229 -0.562,3.262 -0.457,3.262C-0.347,3.262 -0.236,3.226 -0.146,3.153C0.033,3.011 0.092,2.767 0,2.559" style="fill:rgb(102,69,0);fill-rule:nonzero;"/>
        </g>
        <g transform="matrix(1,0,0,1,31,7.9135)">
            <path d="M0,8.087C-0.396,8.087 -0.772,7.849 -0.929,7.458C-2.707,3.013 -7.151,2.077 -7.196,2.067C-7.737,1.959 -8.089,1.432 -7.98,0.891C-7.872,0.349 -7.346,0 -6.804,0.107C-6.578,0.151 -1.248,1.275 0.929,6.715C1.134,7.228 0.884,7.81 0.371,8.015C0.25,8.064 0.124,8.087 0,8.087" style="fill:rgb(102,69,0);fill-rule:nonzero;"/>
        </g>
        <g transform="matrix(1,0,0,1,4.9995,7.9135)">
            <path d="M0,8.087C-0.124,8.087 -0.249,8.064 -0.371,8.015C-0.884,7.81 -1.133,7.228 -0.928,6.715C1.248,1.275 6.579,0.151 6.804,0.107C7.348,0 7.873,0.349 7.981,0.891C8.089,1.431 7.739,1.957 7.2,2.067C7.015,2.105 2.693,3.047 0.929,7.458C0.772,7.849 0.397,8.087 0,8.087" style="fill:rgb(102,69,0);fill-rule:nonzero;"/>
        </g>
        <g transform="matrix(1,0,0,1,18,30.868)">
            <path d="M0,-8.868C-3.623,-8.868 -6.027,-9.29 -9,-9.868C-9.679,-9.999 -11,-9.868 -11,-7.868C-11,-3.868 -6.405,1.132 0,1.132C6.404,1.132 11,-3.868 11,-7.868C11,-9.868 9.679,-10 9,-9.868C6.027,-9.29 3.623,-8.868 0,-8.868" style="fill:rgb(102,69,0);fill-rule:nonzero;"/>
        </g>
        <g transform="matrix(1,0,0,1,9,27)">
            <path d="M0,-4C0,-4 3,-3 9,-3C15,-3 18,-4 18,-4C18,-4 16,0 9,0C2,0 0,-4 0,-4" style="fill:white;fill-rule:nonzero;"/>
        </g>
        <g transform="matrix(0.917496,0.397746,-0.397746,0.917496,9.08069,22.2021)">
            <path d="M0,6.874C-0.68,9.551 -3.4,11.169 -6.077,10.489C-8.753,9.811 -10.372,7.09 -9.692,4.413C-9.013,1.736 -3.355,-4.295 -2.385,-4.049C-1.417,-3.803 0.679,4.197 0,6.874" style="fill:rgb(93,173,236);fill-rule:nonzero;"/>
        </g>
        <g transform="matrix(0.930016,-0.367519,0.367519,0.930016,26.8824,22.1406)">
            <path d="M0,6.874C0.68,9.551 3.4,11.169 6.077,10.489C8.754,9.811 10.373,7.09 9.693,4.413C9.014,1.736 3.355,-4.295 2.386,-4.049C1.417,-3.803 -0.679,4.197 0,6.874" style="fill:rgb(93,173,236);fill-rule:nonzero;"/>
        </g>
        <g transform="matrix(1.26319,-0.145322,0.145322,1.26319,17.1461,26.9692)">
            <path d="M0,16.073C0,16.073 1.265,15.662 1.429,14.721C1.602,13.75 0.805,13.554 0.805,13.554C0.805,13.554 1.846,13.346 1.977,12.178C2.1,11.078 1.115,10.815 1.115,10.815C1.115,10.815 2.085,10.415 2.131,9.276C2.169,8.317 1.136,7.848 1.136,7.848C1.136,7.848 6.174,6.628 6.691,6.508C7.207,6.387 8.012,5.892 7.761,4.813C7.512,3.733 6.557,3.695 6.063,3.81C5.569,3.926 -0.681,5.377 -2.837,5.879C-3.067,5.932 -4.145,6.181 -4.276,6.213C-4.816,6.34 -5.061,6.102 -4.681,5.701C-4.172,5.165 -3.848,4.572 -3.734,3.588C-3.615,2.552 -3.966,1.274 -4.167,0.779C-4.541,-0.142 -5.172,-0.87 -5.901,-1.12C-7.039,-1.51 -7.847,-0.799 -7.443,0.441C-6.839,2.296 -7.234,3.816 -8.276,4.734C-10.725,6.891 -11.865,8.429 -11.106,11.707C-10.279,15.282 -6.729,17.583 -3.154,16.755C-2.965,16.713 0,16.073 0,16.073" style="fill:rgb(241,144,32);fill-rule:nonzero;"/>
        </g>
    </g>
</svg>
